<mxfile host="app.diagrams.net" modified="2024-05-24T07:56:11.600Z" agent="Mozilla/5.0 (Windows NT 10.0; Win64; x64) AppleWebKit/537.36 (KHTML, like Gecko) Chrome/124.0.0.0 Safari/537.36" etag="048rSDcd9twAfAYRBIVA" version="24.4.7" type="device">
  <diagram id="TlU2ax6e7tcZkEX1VU2X" name="Страница 1">
    <mxGraphModel dx="1160" dy="687" grid="1" gridSize="11" guides="1" tooltips="1" connect="1" arrows="1" fold="1" page="0" pageScale="1" pageWidth="827" pageHeight="1169" background="none" math="0" shadow="0">
      <root>
        <mxCell id="0" />
        <mxCell id="1" parent="0" />
        <mxCell id="Ci6c12y3eNflsK-BbCyJ-1" value="" style="rounded=0;whiteSpace=wrap;html=1;labelBackgroundColor=none;fillColor=#A8DADC;strokeColor=#457B9D;fontColor=#1D3557;" parent="1" vertex="1">
          <mxGeometry x="265" y="50" width="400" height="600" as="geometry" />
        </mxCell>
        <mxCell id="Ci6c12y3eNflsK-BbCyJ-12" value="" style="edgeStyle=orthogonalEdgeStyle;rounded=0;orthogonalLoop=1;jettySize=auto;html=1;labelBackgroundColor=none;strokeColor=#457B9D;fontColor=default;" parent="1" target="Ci6c12y3eNflsK-BbCyJ-11" edge="1">
          <mxGeometry relative="1" as="geometry">
            <mxPoint x="170" y="165" as="sourcePoint" />
            <Array as="points">
              <mxPoint x="220" y="170" />
              <mxPoint x="220" y="110" />
              <mxPoint x="345" y="110" />
            </Array>
          </mxGeometry>
        </mxCell>
        <mxCell id="Ci6c12y3eNflsK-BbCyJ-2" value="пользователь&amp;nbsp;&lt;br&gt;приложения" style="shape=umlActor;verticalLabelPosition=bottom;verticalAlign=top;html=1;outlineConnect=0;shadow=0;labelBackgroundColor=none;labelBorderColor=none;fillColor=#A8DADC;strokeColor=#457B9D;fontColor=#1D3557;" parent="1" vertex="1">
          <mxGeometry x="90" y="110" width="70" height="150" as="geometry" />
        </mxCell>
        <mxCell id="Ci6c12y3eNflsK-BbCyJ-23" style="edgeStyle=orthogonalEdgeStyle;rounded=0;orthogonalLoop=1;jettySize=auto;html=1;exitX=0.5;exitY=0.5;exitDx=0;exitDy=0;exitPerimeter=0;startArrow=none;startFill=0;endArrow=classic;endFill=1;labelBackgroundColor=none;strokeColor=#457B9D;fontColor=default;" parent="1" source="Ci6c12y3eNflsK-BbCyJ-3" target="Ci6c12y3eNflsK-BbCyJ-2" edge="1">
          <mxGeometry relative="1" as="geometry">
            <Array as="points">
              <mxPoint x="220" y="195" />
            </Array>
          </mxGeometry>
        </mxCell>
        <mxCell id="Ci6c12y3eNflsK-BbCyJ-29" value="" style="edgeStyle=orthogonalEdgeStyle;rounded=0;orthogonalLoop=1;jettySize=auto;html=1;startArrow=none;startFill=0;endArrow=classic;endFill=1;labelBackgroundColor=none;strokeColor=#457B9D;fontColor=default;" parent="1" source="Ci6c12y3eNflsK-BbCyJ-3" target="Ci6c12y3eNflsK-BbCyJ-28" edge="1">
          <mxGeometry relative="1" as="geometry" />
        </mxCell>
        <mxCell id="Ci6c12y3eNflsK-BbCyJ-3" value="работник&lt;br&gt;ресторана" style="shape=umlActor;verticalLabelPosition=bottom;verticalAlign=top;html=1;outlineConnect=0;labelBackgroundColor=none;fillColor=#A8DADC;strokeColor=#457B9D;fontColor=#1D3557;" parent="1" vertex="1">
          <mxGeometry x="200" y="390" width="40" height="90" as="geometry" />
        </mxCell>
        <mxCell id="Ci6c12y3eNflsK-BbCyJ-27" style="edgeStyle=orthogonalEdgeStyle;rounded=0;orthogonalLoop=1;jettySize=auto;html=1;exitX=0.5;exitY=0.5;exitDx=0;exitDy=0;exitPerimeter=0;startArrow=none;startFill=0;endArrow=classic;endFill=1;labelBackgroundColor=none;strokeColor=#457B9D;fontColor=default;" parent="1" source="Ci6c12y3eNflsK-BbCyJ-4" target="Ci6c12y3eNflsK-BbCyJ-2" edge="1">
          <mxGeometry relative="1" as="geometry">
            <mxPoint x="190" y="230" as="targetPoint" />
            <Array as="points">
              <mxPoint x="125" y="400" />
              <mxPoint x="180" y="400" />
              <mxPoint x="180" y="185" />
            </Array>
          </mxGeometry>
        </mxCell>
        <mxCell id="Ci6c12y3eNflsK-BbCyJ-4" value="доставщик&lt;br&gt;еды" style="shape=umlActor;verticalLabelPosition=bottom;verticalAlign=top;html=1;outlineConnect=0;labelBackgroundColor=none;fillColor=#A8DADC;strokeColor=#457B9D;fontColor=#1D3557;" parent="1" vertex="1">
          <mxGeometry x="105" y="340" width="40" height="90" as="geometry" />
        </mxCell>
        <mxCell id="Ci6c12y3eNflsK-BbCyJ-10" value="база данных" style="shape=umlActor;verticalLabelPosition=bottom;verticalAlign=top;html=1;outlineConnect=0;shadow=0;labelBackgroundColor=none;fillColor=#A8DADC;strokeColor=#457B9D;fontColor=#1D3557;" parent="1" vertex="1">
          <mxGeometry x="730" y="260" width="40" height="90" as="geometry" />
        </mxCell>
        <mxCell id="Ci6c12y3eNflsK-BbCyJ-11" value="вход&amp;nbsp;&lt;br&gt;по логину и паролю" style="ellipse;whiteSpace=wrap;html=1;verticalAlign=top;shadow=0;labelBackgroundColor=none;fillColor=#A8DADC;strokeColor=#457B9D;fontColor=#1D3557;" parent="1" vertex="1">
          <mxGeometry x="290" y="137.5" width="110" height="55" as="geometry" />
        </mxCell>
        <mxCell id="Ci6c12y3eNflsK-BbCyJ-16" value="регистрация" style="ellipse;whiteSpace=wrap;html=1;verticalAlign=top;shadow=0;labelBackgroundColor=none;fillColor=#A8DADC;strokeColor=#457B9D;fontColor=#1D3557;" parent="1" vertex="1">
          <mxGeometry x="420" y="90" width="90" height="30" as="geometry" />
        </mxCell>
        <mxCell id="Ci6c12y3eNflsK-BbCyJ-21" style="edgeStyle=orthogonalEdgeStyle;rounded=0;orthogonalLoop=1;jettySize=auto;html=1;exitX=0.5;exitY=0.5;exitDx=0;exitDy=0;exitPerimeter=0;startArrow=none;startFill=0;endArrow=classic;endFill=1;labelBackgroundColor=none;strokeColor=#457B9D;fontColor=default;" parent="1" source="Ci6c12y3eNflsK-BbCyJ-20" target="Ci6c12y3eNflsK-BbCyJ-2" edge="1">
          <mxGeometry relative="1" as="geometry">
            <mxPoint x="20" y="240" as="targetPoint" />
            <Array as="points">
              <mxPoint x="10" y="425" />
              <mxPoint x="10" y="330" />
              <mxPoint x="70" y="330" />
              <mxPoint x="70" y="195" />
            </Array>
          </mxGeometry>
        </mxCell>
        <mxCell id="Ci6c12y3eNflsK-BbCyJ-26" style="edgeStyle=orthogonalEdgeStyle;rounded=0;orthogonalLoop=1;jettySize=auto;html=1;entryX=0;entryY=0.5;entryDx=0;entryDy=0;startArrow=none;startFill=0;endArrow=classic;endFill=1;labelBackgroundColor=none;strokeColor=#457B9D;fontColor=default;" parent="1" source="Ci6c12y3eNflsK-BbCyJ-20" target="Ci6c12y3eNflsK-BbCyJ-25" edge="1">
          <mxGeometry relative="1" as="geometry">
            <Array as="points">
              <mxPoint x="240" y="540" />
              <mxPoint x="240" y="603" />
            </Array>
          </mxGeometry>
        </mxCell>
        <mxCell id="Ci6c12y3eNflsK-BbCyJ-42" style="edgeStyle=orthogonalEdgeStyle;rounded=0;orthogonalLoop=1;jettySize=auto;html=1;exitX=0.5;exitY=0.5;exitDx=0;exitDy=0;exitPerimeter=0;startArrow=none;startFill=0;endArrow=classic;endFill=1;entryX=0;entryY=1;entryDx=0;entryDy=0;labelBackgroundColor=none;strokeColor=#457B9D;fontColor=default;" parent="1" source="Ci6c12y3eNflsK-BbCyJ-20" target="Ci6c12y3eNflsK-BbCyJ-41" edge="1">
          <mxGeometry relative="1" as="geometry">
            <Array as="points">
              <mxPoint x="70" y="670" />
              <mxPoint x="400" y="670" />
              <mxPoint x="400" y="630" />
            </Array>
          </mxGeometry>
        </mxCell>
        <mxCell id="Ci6c12y3eNflsK-BbCyJ-51" style="edgeStyle=orthogonalEdgeStyle;rounded=0;orthogonalLoop=1;jettySize=auto;html=1;startArrow=none;startFill=0;endArrow=classic;endFill=1;exitX=0.5;exitY=0.5;exitDx=0;exitDy=0;exitPerimeter=0;labelBackgroundColor=none;strokeColor=#457B9D;fontColor=default;" parent="1" source="Ci6c12y3eNflsK-BbCyJ-20" target="Ci6c12y3eNflsK-BbCyJ-50" edge="1">
          <mxGeometry relative="1" as="geometry">
            <Array as="points">
              <mxPoint x="70" y="520" />
              <mxPoint x="305" y="520" />
              <mxPoint x="305" y="548" />
            </Array>
          </mxGeometry>
        </mxCell>
        <mxCell id="Ci6c12y3eNflsK-BbCyJ-20" value="заказчик&lt;br&gt;еды&lt;br&gt;" style="shape=umlActor;verticalLabelPosition=bottom;verticalAlign=top;html=1;outlineConnect=0;shadow=0;labelBackgroundColor=none;fillColor=#A8DADC;strokeColor=#457B9D;fontColor=#1D3557;" parent="1" vertex="1">
          <mxGeometry x="50" y="450" width="40" height="90" as="geometry" />
        </mxCell>
        <mxCell id="Ci6c12y3eNflsK-BbCyJ-25" value="бонусная программа" style="ellipse;whiteSpace=wrap;html=1;shadow=0;labelBackgroundColor=none;fillColor=#A8DADC;strokeColor=#457B9D;fontColor=#1D3557;" parent="1" vertex="1">
          <mxGeometry x="280" y="570" width="110" height="65" as="geometry" />
        </mxCell>
        <mxCell id="Ci6c12y3eNflsK-BbCyJ-28" value="редактирование актуальной информации о ресторане" style="ellipse;whiteSpace=wrap;html=1;verticalAlign=top;labelBackgroundColor=none;fillColor=#A8DADC;strokeColor=#457B9D;fontColor=#1D3557;" parent="1" vertex="1">
          <mxGeometry x="380" y="340" width="140" height="70" as="geometry" />
        </mxCell>
        <mxCell id="Ci6c12y3eNflsK-BbCyJ-30" value="Ресторан" style="rounded=0;whiteSpace=wrap;html=1;shadow=0;labelBackgroundColor=none;labelBorderColor=none;fillColor=#A8DADC;strokeColor=#457B9D;fontColor=#1D3557;" parent="1" vertex="1">
          <mxGeometry x="265" y="50" width="125" height="40" as="geometry" />
        </mxCell>
        <mxCell id="Ci6c12y3eNflsK-BbCyJ-35" value="" style="endArrow=none;dashed=1;html=1;rounded=0;exitX=0.5;exitY=0;exitDx=0;exitDy=0;labelBackgroundColor=none;strokeColor=#457B9D;fontColor=default;" parent="1" source="Ci6c12y3eNflsK-BbCyJ-36" target="Ci6c12y3eNflsK-BbCyJ-28" edge="1">
          <mxGeometry width="50" height="50" relative="1" as="geometry">
            <mxPoint x="370" y="430" as="sourcePoint" />
            <mxPoint x="390" y="400" as="targetPoint" />
          </mxGeometry>
        </mxCell>
        <mxCell id="Ci6c12y3eNflsK-BbCyJ-36" value="информация&amp;nbsp;&lt;br&gt;о меню" style="ellipse;whiteSpace=wrap;html=1;shadow=0;labelBackgroundColor=none;labelBorderColor=none;fillColor=#A8DADC;strokeColor=#457B9D;fontColor=#1D3557;" parent="1" vertex="1">
          <mxGeometry x="423.5" y="440" width="86.5" height="60" as="geometry" />
        </mxCell>
        <mxCell id="Ci6c12y3eNflsK-BbCyJ-37" value="информация&amp;nbsp;&lt;br&gt;о этапе приготвления блюда" style="ellipse;whiteSpace=wrap;html=1;shadow=0;labelBackgroundColor=none;labelBorderColor=none;fillColor=#A8DADC;strokeColor=#457B9D;fontColor=#1D3557;" parent="1" vertex="1">
          <mxGeometry x="520" y="390" width="130" height="70" as="geometry" />
        </mxCell>
        <mxCell id="Ci6c12y3eNflsK-BbCyJ-38" value="" style="endArrow=none;dashed=1;html=1;rounded=0;entryX=1;entryY=1;entryDx=0;entryDy=0;labelBackgroundColor=none;strokeColor=#457B9D;fontColor=default;" parent="1" source="Ci6c12y3eNflsK-BbCyJ-37" target="Ci6c12y3eNflsK-BbCyJ-28" edge="1">
          <mxGeometry width="50" height="50" relative="1" as="geometry">
            <mxPoint x="390" y="340" as="sourcePoint" />
            <mxPoint x="440" y="290" as="targetPoint" />
          </mxGeometry>
        </mxCell>
        <mxCell id="Ci6c12y3eNflsK-BbCyJ-46" style="edgeStyle=orthogonalEdgeStyle;rounded=0;orthogonalLoop=1;jettySize=auto;html=1;startArrow=none;startFill=0;endArrow=classic;endFill=1;labelBackgroundColor=none;strokeColor=#457B9D;fontColor=default;" parent="1" source="Ci6c12y3eNflsK-BbCyJ-41" edge="1">
          <mxGeometry relative="1" as="geometry">
            <mxPoint x="750" y="380" as="targetPoint" />
          </mxGeometry>
        </mxCell>
        <mxCell id="Ci6c12y3eNflsK-BbCyJ-41" value="указание адреса&lt;br&gt;куда нужно доставить заказ" style="ellipse;whiteSpace=wrap;html=1;shadow=0;labelBackgroundColor=none;labelBorderColor=none;fillColor=#A8DADC;strokeColor=#457B9D;fontColor=#1D3557;" parent="1" vertex="1">
          <mxGeometry x="406.5" y="570" width="120" height="70" as="geometry" />
        </mxCell>
        <mxCell id="Ci6c12y3eNflsK-BbCyJ-43" value="информация о сезонных скидках и акциях" style="ellipse;whiteSpace=wrap;html=1;shadow=0;labelBackgroundColor=none;labelBorderColor=none;fillColor=#A8DADC;strokeColor=#457B9D;fontColor=#1D3557;" parent="1" vertex="1">
          <mxGeometry x="313.5" y="420" width="110" height="60" as="geometry" />
        </mxCell>
        <mxCell id="Ci6c12y3eNflsK-BbCyJ-44" value="" style="endArrow=none;dashed=1;html=1;rounded=0;exitX=0;exitY=1;exitDx=0;exitDy=0;labelBackgroundColor=none;strokeColor=#457B9D;fontColor=default;" parent="1" source="Ci6c12y3eNflsK-BbCyJ-28" target="Ci6c12y3eNflsK-BbCyJ-43" edge="1">
          <mxGeometry width="50" height="50" relative="1" as="geometry">
            <mxPoint x="390" y="310" as="sourcePoint" />
            <mxPoint x="440" y="260" as="targetPoint" />
          </mxGeometry>
        </mxCell>
        <mxCell id="Ci6c12y3eNflsK-BbCyJ-45" value="" style="endArrow=none;dashed=1;html=1;rounded=0;exitX=0.945;exitY=0.282;exitDx=0;exitDy=0;exitPerimeter=0;labelBackgroundColor=none;strokeColor=#457B9D;fontColor=default;" parent="1" source="Ci6c12y3eNflsK-BbCyJ-11" target="Ci6c12y3eNflsK-BbCyJ-16" edge="1">
          <mxGeometry width="50" height="50" relative="1" as="geometry">
            <mxPoint x="390" y="410" as="sourcePoint" />
            <mxPoint x="440" y="360" as="targetPoint" />
          </mxGeometry>
        </mxCell>
        <mxCell id="Ci6c12y3eNflsK-BbCyJ-48" style="edgeStyle=orthogonalEdgeStyle;rounded=0;orthogonalLoop=1;jettySize=auto;html=1;startArrow=none;startFill=0;endArrow=classic;endFill=1;labelBackgroundColor=none;strokeColor=#457B9D;fontColor=default;" parent="1" source="Ci6c12y3eNflsK-BbCyJ-47" target="Ci6c12y3eNflsK-BbCyJ-4" edge="1">
          <mxGeometry relative="1" as="geometry">
            <Array as="points">
              <mxPoint x="568" y="210" />
              <mxPoint x="280" y="210" />
              <mxPoint x="280" y="310" />
              <mxPoint x="125" y="310" />
            </Array>
          </mxGeometry>
        </mxCell>
        <mxCell id="Ci6c12y3eNflsK-BbCyJ-49" style="edgeStyle=orthogonalEdgeStyle;rounded=0;orthogonalLoop=1;jettySize=auto;html=1;startArrow=classic;startFill=1;endArrow=none;endFill=0;entryX=0.5;entryY=0.5;entryDx=0;entryDy=0;entryPerimeter=0;labelBackgroundColor=none;strokeColor=#457B9D;fontColor=default;" parent="1" source="Ci6c12y3eNflsK-BbCyJ-47" target="Ci6c12y3eNflsK-BbCyJ-10" edge="1">
          <mxGeometry relative="1" as="geometry" />
        </mxCell>
        <mxCell id="Ci6c12y3eNflsK-BbCyJ-47" value="адрес, куда нужно доставить заказ" style="ellipse;whiteSpace=wrap;html=1;shadow=0;labelBackgroundColor=none;labelBorderColor=none;fillColor=#A8DADC;strokeColor=#457B9D;fontColor=#1D3557;" parent="1" vertex="1">
          <mxGeometry x="510" y="132.5" width="115" height="65" as="geometry" />
        </mxCell>
        <mxCell id="Ci6c12y3eNflsK-BbCyJ-50" value="оформление заказа,&lt;br&gt;основываясь на меню" style="ellipse;whiteSpace=wrap;html=1;shadow=0;labelBackgroundColor=none;labelBorderColor=none;fillColor=#A8DADC;strokeColor=#457B9D;fontColor=#1D3557;" parent="1" vertex="1">
          <mxGeometry x="520" y="510" width="130" height="75" as="geometry" />
        </mxCell>
        <mxCell id="Ci6c12y3eNflsK-BbCyJ-52" value="" style="endArrow=none;html=1;rounded=0;entryX=1;entryY=0;entryDx=0;entryDy=0;startArrow=classic;startFill=1;exitX=0.5;exitY=0.5;exitDx=0;exitDy=0;exitPerimeter=0;labelBackgroundColor=none;strokeColor=#457B9D;fontColor=default;" parent="1" source="Ci6c12y3eNflsK-BbCyJ-10" target="Ci6c12y3eNflsK-BbCyJ-28" edge="1">
          <mxGeometry width="50" height="50" relative="1" as="geometry">
            <mxPoint x="390" y="390" as="sourcePoint" />
            <mxPoint x="440" y="340" as="targetPoint" />
          </mxGeometry>
        </mxCell>
        <mxCell id="Ci6c12y3eNflsK-BbCyJ-53" value="" style="endArrow=classic;html=1;rounded=0;exitX=0.5;exitY=0;exitDx=0;exitDy=0;labelBackgroundColor=none;strokeColor=#457B9D;fontColor=default;" parent="1" source="Ci6c12y3eNflsK-BbCyJ-50" target="Ci6c12y3eNflsK-BbCyJ-10" edge="1">
          <mxGeometry width="50" height="50" relative="1" as="geometry">
            <mxPoint x="390" y="390" as="sourcePoint" />
            <mxPoint x="440" y="340" as="targetPoint" />
          </mxGeometry>
        </mxCell>
        <mxCell id="Ci6c12y3eNflsK-BbCyJ-56" style="edgeStyle=orthogonalEdgeStyle;rounded=0;orthogonalLoop=1;jettySize=auto;html=1;startArrow=classic;startFill=1;endArrow=none;endFill=0;labelBackgroundColor=none;strokeColor=#457B9D;fontColor=default;" parent="1" source="Ci6c12y3eNflsK-BbCyJ-55" target="Ci6c12y3eNflsK-BbCyJ-10" edge="1">
          <mxGeometry relative="1" as="geometry" />
        </mxCell>
        <mxCell id="Ci6c12y3eNflsK-BbCyJ-57" style="edgeStyle=orthogonalEdgeStyle;rounded=0;orthogonalLoop=1;jettySize=auto;html=1;startArrow=none;startFill=0;endArrow=classic;endFill=1;entryX=0.75;entryY=0.1;entryDx=0;entryDy=0;entryPerimeter=0;labelBackgroundColor=none;strokeColor=#457B9D;fontColor=default;" parent="1" source="Ci6c12y3eNflsK-BbCyJ-55" target="Ci6c12y3eNflsK-BbCyJ-3" edge="1">
          <mxGeometry relative="1" as="geometry">
            <mxPoint x="250" y="410" as="targetPoint" />
            <Array as="points">
              <mxPoint x="455" y="330" />
              <mxPoint x="250" y="330" />
              <mxPoint x="250" y="399" />
            </Array>
          </mxGeometry>
        </mxCell>
        <mxCell id="Ci6c12y3eNflsK-BbCyJ-55" value="информация о заказанных блюдах" style="ellipse;whiteSpace=wrap;html=1;shadow=0;labelBackgroundColor=none;labelBorderColor=none;fillColor=#A8DADC;strokeColor=#457B9D;fontColor=#1D3557;" parent="1" vertex="1">
          <mxGeometry x="290" y="210" width="170" height="90" as="geometry" />
        </mxCell>
      </root>
    </mxGraphModel>
  </diagram>
</mxfile>
